<svg width="246" height="147" viewBox="0 0 246 147" fill="none" xmlns="http://www.w3.org/2000/svg">
<path d="M22.5119 88.8006H19.6607V111.979C19.6607 113.442 19.7001 114.893 19.79 116.322H18.8677C18.4291 115.416 17.7542 114.055 16.8488 112.243L5.57315 89.7682C5.28072 89.1212 4.81394 88.8006 4.16721 88.8006H1.18662C0.393664 88.8006 0 89.2112 0 90.0326V119.09H2.85125V95.124C2.85125 93.4813 2.82313 92.2661 2.76127 91.4785H3.59921C3.65545 91.6529 4.22907 92.868 5.30883 95.124L16.8488 118.122C17.1412 118.769 17.608 119.09 18.2547 119.09H21.3253C22.1126 119.09 22.5119 118.679 22.5119 117.864V88.8006ZM51.3394 119.09L48.2688 109.476C47.5939 107.107 46.3961 105.672 44.6696 105.177V104.997C46.6604 104.705 48.0832 103.951 48.9493 102.736C49.8097 101.526 50.2427 99.6416 50.2427 97.0987C50.2427 93.7625 49.5398 91.4841 48.1394 90.2689C46.7335 89.0593 44.2872 88.4518 40.806 88.4518C36.4814 88.4518 33.1015 88.5643 30.672 88.8006V119.09H33.5233V106.01C35.8628 106.066 38.3653 106.094 41.0254 106.094C43.1062 106.094 44.5515 107.253 45.3725 109.566L48.2688 119.09H51.3394ZM33.5233 103.597V90.9946C35.8628 90.9384 38.2922 90.9102 40.806 90.9102C43.2636 90.9102 44.9676 91.3491 45.9181 92.2267C46.8741 93.1043 47.3465 94.7696 47.3465 97.2281C47.3465 99.6584 46.8741 101.318 45.9181 102.213C44.9676 103.101 43.2636 103.563 40.806 103.597H33.5233ZM77.7992 101.577H74.9929V113.644C74.0538 114.376 73.272 114.949 72.6422 115.36C72.0179 115.771 71.1744 116.165 70.1227 116.542C69.0655 116.924 68.0026 117.115 66.9172 117.115C64.1953 117.115 62.2832 116.12 61.1697 114.128C60.0562 112.142 59.4994 108.772 59.4994 104.035C59.4994 100.463 59.8088 97.7344 60.4217 95.8441C61.0404 93.9595 61.9908 92.6486 63.273 91.9173C64.5608 91.1859 66.4054 90.8202 68.8068 90.8202C71.4949 90.8202 74.1606 90.9665 76.7925 91.259L77.1412 89.11C74.8017 88.553 71.9617 88.2717 68.6268 88.2717C64.0941 88.2717 60.9335 89.4081 59.1508 91.6754C57.368 93.9426 56.4739 98.0213 56.4739 103.9C56.4739 109.402 57.2274 113.397 58.7346 115.883C60.2418 118.376 62.7219 119.619 66.1692 119.619C69.7122 119.619 72.7659 118.302 75.3416 115.664L75.7353 119.09H77.7992V101.577Z" fill="#4D4D4D"/>
<path d="M118.49 91.3659V88.8062H95.3088V91.3659H105.42V119.281H108.333V91.3659H118.49ZM133.415 88.2717C129.057 88.2717 126.015 89.4307 124.277 91.7429C122.539 94.0551 121.673 98.1507 121.673 104.041C121.673 109.931 122.539 114.032 124.277 116.345C126.015 118.657 129.057 119.81 133.415 119.81C137.774 119.81 140.816 118.657 142.554 116.345C144.292 114.032 145.158 109.931 145.158 104.041C145.158 98.1507 144.292 94.0551 142.554 91.7429C140.816 89.4307 137.774 88.2717 133.415 88.2717ZM133.415 90.8371C136.683 90.8371 138.949 91.7991 140.215 93.7288C141.48 95.6585 142.115 99.0958 142.115 104.041C142.115 108.992 141.48 112.429 140.215 114.359C138.949 116.283 136.683 117.25 133.415 117.25C130.148 117.25 127.876 116.283 126.594 114.359C125.312 112.429 124.671 108.992 124.671 104.041C124.671 99.0958 125.312 95.6585 126.594 93.7288C127.876 91.7991 130.148 90.8371 133.415 90.8371ZM171.522 91.3659V88.8062H148.341V91.3659H158.452V119.281H161.366V91.3659H171.522ZM190.154 109.211L193.505 119.281H196.509L186.313 89.6444C186.133 89.0818 185.75 88.8062 185.165 88.8062H181.853C181.262 88.8062 180.88 89.0818 180.706 89.6444L170.504 119.281H173.507L176.865 109.211H190.154ZM189.316 106.691H177.703L182.072 93.5769L182.91 91.1015H184.147C184.237 91.3941 184.384 91.8441 184.592 92.4461C184.794 93.0537 184.912 93.425 184.94 93.5769L189.316 106.691ZM217.305 109.211L220.663 119.281H223.666L213.464 89.6444C213.29 89.0818 212.907 88.8062 212.317 88.8062H209.005C208.42 88.8062 208.037 89.0818 207.857 89.6444L197.661 119.281H200.659L204.016 109.211H217.305ZM216.467 106.691H204.854L209.229 93.5769L210.067 91.1015H211.305C211.389 91.3941 211.535 91.8441 211.743 92.4461C211.951 93.0537 212.069 93.425 212.098 93.5769L216.467 106.691ZM231.128 88.8062H228.215V114.027C228.215 115.613 228.682 116.896 229.627 117.869C230.566 118.837 231.966 119.326 233.822 119.326C238.647 119.326 242.623 119.236 245.745 119.062L245.655 116.851H234.306C232.186 116.851 231.128 115.776 231.128 113.627V88.8062Z" fill="#8D8D8D"/>
<path d="M121.145 47.9756L148.896 0H93.3931L121.145 47.9756ZM89.6614 21.4138L61.9099 69.3894H117.413L89.6614 21.4138ZM152.628 21.4138L124.876 69.3894H180.379L152.628 21.4138Z" fill="url(#paint0_linear_282_5)"/>
<path d="M15.5386 140.542L12.513 129.802H10.6853L14.8132 143.107H16.2753L20.4144 129.802H18.5811L15.5386 140.542ZM26.9886 143.287C28.4283 143.287 29.4968 142.797 30.1941 141.807L29.3562 140.783C29.0357 141.177 28.6982 141.459 28.3383 141.639C27.9728 141.819 27.5566 141.909 27.0786 141.909C26.3306 141.909 25.757 141.667 25.3577 141.188C24.9584 140.705 24.7616 139.934 24.7616 138.876V138.646H30.2785V137.588C30.2616 136.03 29.9748 134.882 29.4012 134.145C28.8276 133.408 27.9615 133.037 26.8086 133.037C25.6558 133.037 24.756 133.459 24.1149 134.297C23.4737 135.129 23.1532 136.288 23.1532 137.762V138.961C23.1644 140.378 23.5019 141.453 24.1599 142.19C24.8122 142.921 25.757 143.287 26.9886 143.287ZM26.8086 134.426C27.4104 134.426 27.8603 134.629 28.1527 135.028C28.4508 135.433 28.6195 136.103 28.6589 137.042V137.262H24.7672C24.8122 136.288 24.9922 135.574 25.3183 135.118C25.6389 134.657 26.1338 134.426 26.8086 134.426ZM38.1687 134.736L38.1574 133.166C37.9887 133.082 37.775 133.037 37.5163 133.037C36.7233 133.037 36.116 133.436 35.683 134.224L35.6548 133.222H34.0858V143.107H35.6998V136.035C36.0316 135.129 36.6052 134.674 37.4376 134.674C37.6963 134.674 37.9381 134.696 38.1687 134.736ZM41.1324 137.717V138.73C41.1436 140.181 41.4417 141.301 42.0209 142.1C42.6058 142.893 43.4044 143.287 44.4279 143.287C45.4177 143.287 46.1769 142.876 46.7055 142.049L46.7843 143.107H48.2633V129.07H46.6493V134.19C46.1207 133.419 45.3839 133.037 44.4391 133.037C43.3706 133.037 42.5552 133.436 41.9872 134.235C41.4192 135.034 41.1324 136.193 41.1324 137.717ZM42.752 138.64V137.65C42.7576 136.575 42.9207 135.776 43.2525 135.253C43.5787 134.736 44.1186 134.471 44.8609 134.471C45.637 134.471 46.2331 134.871 46.6493 135.658V140.648C46.2556 141.459 45.6539 141.864 44.8497 141.864C44.1073 141.864 43.5731 141.605 43.2413 141.082C42.9151 140.564 42.752 139.748 42.752 138.64ZM57.6606 142.241L57.7 143.107H59.2353V133.222H57.6156V140.542C57.2445 141.419 56.5696 141.858 55.5911 141.858C54.6632 141.858 54.202 141.087 54.202 139.546V133.222H52.5936V139.664C52.5992 140.845 52.8298 141.745 53.2853 142.364C53.7465 142.983 54.4213 143.287 55.3155 143.287C56.3447 143.287 57.1264 142.938 57.6606 142.241ZM68.5764 142.241L68.6101 143.107H70.1454V133.222H68.5314V140.542C68.1602 141.419 67.4797 141.858 66.5012 141.858C65.5789 141.858 65.1121 141.087 65.1121 139.546V133.222H63.5037V139.664C63.5093 140.845 63.7455 141.745 64.2011 142.364C64.6566 142.983 65.3314 143.287 66.2256 143.287C67.2548 143.287 68.0365 142.938 68.5764 142.241ZM78.5304 134.736L78.5192 133.166C78.3505 133.082 78.1368 133.037 77.8781 133.037C77.0907 133.037 76.4777 133.436 76.0447 134.224L76.0166 133.222H74.4476V143.107H76.0616V136.035C76.3934 135.129 76.9726 134.674 77.7993 134.674C78.058 134.674 78.3055 134.696 78.5304 134.736ZM83.5075 141.729L88.0908 134.415V133.222H81.6966V134.618H86.19L81.6572 141.864V143.107H88.2708V141.729H83.5075ZM97.1732 143.107H98.8547V142.961C98.6579 142.398 98.551 141.74 98.5454 140.98V135.99C98.5342 135.028 98.2642 134.297 97.7356 133.791C97.2126 133.29 96.4421 133.037 95.4298 133.037C94.8112 133.037 94.2488 133.172 93.7427 133.43C93.2366 133.695 92.8317 134.055 92.5336 134.516C92.2355 134.972 92.0893 135.456 92.0893 135.962H93.7033C93.7033 135.518 93.8552 135.152 94.1589 134.859C94.4682 134.573 94.8618 134.426 95.3511 134.426C95.8854 134.426 96.2847 134.55 96.5433 134.803C96.8077 135.051 96.937 135.473 96.937 136.063V137.115H95.7504C94.5638 137.127 93.6302 137.425 92.9441 138.016C92.2637 138.606 91.9262 139.405 91.9262 140.412C91.9262 141.324 92.1737 142.032 92.6798 142.533C93.1803 143.039 93.8777 143.287 94.7719 143.287C95.6604 143.287 96.3915 142.871 96.9651 142.027C97.0101 142.533 97.0776 142.893 97.1732 143.107ZM95.0193 141.819C94.485 141.819 94.1026 141.695 93.8777 141.442C93.6527 141.188 93.5403 140.778 93.5403 140.221C93.5403 139.625 93.7652 139.158 94.2095 138.826C94.6538 138.494 95.2555 138.325 96.026 138.308H96.937V140.665C96.7739 140.997 96.5096 141.273 96.1553 141.492C95.7954 141.712 95.4186 141.819 95.0193 141.819ZM104.445 133.222H102.926V143.107H104.535V135.698C104.872 134.882 105.446 134.471 106.261 134.471C107.358 134.471 107.915 135.158 107.931 136.53V143.107H109.557V136.485C109.607 135.9 109.782 135.416 110.091 135.039C110.395 134.663 110.788 134.471 111.278 134.471C111.885 134.471 112.318 134.646 112.571 135C112.83 135.349 112.959 135.883 112.959 136.603V143.107H114.562V136.446C114.523 134.173 113.589 133.037 111.767 133.037C110.659 133.037 109.799 133.515 109.174 134.471C108.736 133.515 107.965 133.037 106.863 133.037C105.879 133.037 105.086 133.402 104.478 134.134L104.445 133.222ZM120.607 143.107V133.222H118.993V143.107H120.607ZM120.737 130.601C120.737 130.331 120.658 130.1 120.506 129.909C120.349 129.717 120.118 129.622 119.814 129.622C119.511 129.622 119.28 129.717 119.128 129.903C118.977 130.094 118.903 130.325 118.903 130.601C118.903 130.871 118.977 131.101 119.128 131.281C119.28 131.467 119.511 131.557 119.814 131.557C120.124 131.557 120.354 131.467 120.506 131.281C120.658 131.101 120.737 130.871 120.737 130.601ZM126.546 133.222H125.016V143.107H126.636V135.923C126.827 135.495 127.086 135.141 127.407 134.876C127.727 134.606 128.087 134.471 128.486 134.471C129.009 134.471 129.397 134.634 129.656 134.961C129.915 135.287 130.044 135.838 130.044 136.609V143.107H131.647V136.536C131.624 134.207 130.741 133.037 128.992 133.037C128.02 133.037 127.215 133.453 126.591 134.291L126.546 133.222ZM135.623 137.717V138.814C135.645 140.255 135.943 141.363 136.517 142.134C137.085 142.904 137.884 143.287 138.907 143.287C139.869 143.287 140.611 142.904 141.14 142.128V143.416C141.1 144.885 140.409 145.622 139.065 145.622C138.255 145.622 137.512 145.29 136.843 144.632L136.185 145.745C136.489 146.1 136.944 146.398 137.552 146.64C138.159 146.876 138.705 147 139.194 147C140.313 147 141.185 146.674 141.815 146.015C142.439 145.363 142.754 144.423 142.754 143.197V133.222H141.292L141.207 134.325C140.684 133.47 139.925 133.037 138.918 133.037C137.839 133.037 137.023 133.43 136.461 134.224C135.898 135.011 135.623 136.176 135.623 137.717ZM137.237 138.64V137.65C137.243 136.575 137.411 135.776 137.737 135.253C138.069 134.736 138.603 134.471 139.346 134.471C140.122 134.471 140.718 134.876 141.14 135.686V140.632C140.735 141.453 140.133 141.864 139.329 141.864C138.587 141.864 138.052 141.605 137.726 141.082C137.4 140.564 137.237 139.748 137.237 138.64ZM151.831 140.575C151.831 140.986 151.69 141.307 151.409 141.549C151.128 141.79 150.723 141.909 150.188 141.909C149.615 141.909 149.171 141.757 148.856 141.442C148.535 141.132 148.366 140.705 148.349 140.153H146.724C146.724 141.065 147.045 141.813 147.686 142.404C148.321 142.994 149.159 143.287 150.188 143.287C151.178 143.287 151.971 143.034 152.562 142.516C153.152 142.004 153.445 141.318 153.445 140.457C153.445 139.771 153.231 139.203 152.798 138.753C152.365 138.308 151.549 137.847 150.352 137.38C149.598 137.048 149.12 136.783 148.923 136.581C148.726 136.384 148.625 136.12 148.625 135.788C148.625 135.371 148.76 135.045 149.03 134.798C149.3 134.55 149.677 134.426 150.149 134.426C150.61 134.426 150.993 134.584 151.291 134.899C151.589 135.214 151.741 135.591 151.741 136.035H153.349C153.349 135.158 153.057 134.437 152.472 133.881C151.887 133.318 151.111 133.037 150.149 133.037C149.238 133.037 148.484 133.307 147.9 133.836C147.309 134.37 147.017 135.039 147.017 135.844C147.017 136.294 147.107 136.682 147.281 137.008C147.461 137.335 147.725 137.627 148.08 137.881C148.439 138.134 149.052 138.443 149.924 138.803C150.672 139.141 151.178 139.433 151.437 139.681C151.701 139.928 151.831 140.226 151.831 140.575ZM159.535 130.826H157.932V133.222H156.425V134.528H157.932V140.665C157.932 141.504 158.095 142.145 158.433 142.606C158.765 143.062 159.254 143.287 159.895 143.287C160.277 143.287 160.654 143.231 161.014 143.107L161.037 141.734C160.817 141.807 160.598 141.847 160.384 141.847C160.075 141.847 159.856 141.745 159.726 141.543C159.603 141.346 159.535 141.048 159.535 140.66V134.528H161.025V133.222H159.535V130.826ZM168.348 143.287C169.787 143.287 170.856 142.797 171.553 141.807L170.715 140.783C170.4 141.177 170.057 141.459 169.697 141.639C169.332 141.819 168.916 141.909 168.443 141.909C167.69 141.909 167.116 141.667 166.717 141.188C166.317 140.705 166.121 139.934 166.121 138.876V138.646H171.637V137.588C171.626 136.03 171.334 134.882 170.76 134.145C170.187 133.408 169.326 133.037 168.168 133.037C167.015 133.037 166.121 133.459 165.479 134.297C164.833 135.129 164.512 136.288 164.512 137.762V138.961C164.523 140.378 164.861 141.453 165.519 142.19C166.177 142.921 167.122 143.287 168.348 143.287ZM168.168 134.426C168.769 134.426 169.219 134.629 169.512 135.028C169.81 135.433 169.978 136.103 170.023 137.042V137.262H166.132C166.171 136.288 166.357 135.574 166.677 135.118C166.998 134.657 167.498 134.426 168.168 134.426ZM178.881 141.909C178.133 141.909 177.593 141.667 177.25 141.188C176.901 140.705 176.733 139.883 176.733 138.719V137.459C176.744 136.384 176.924 135.608 177.273 135.135C177.616 134.663 178.15 134.426 178.87 134.426C179.421 134.426 179.859 134.612 180.169 134.978C180.484 135.343 180.658 135.889 180.697 136.62H182.221C182.182 135.512 181.867 134.634 181.277 133.999C180.681 133.357 179.882 133.037 178.87 133.037C177.644 133.037 176.716 133.425 176.075 134.201C175.434 134.978 175.113 136.114 175.113 137.605V138.696C175.113 140.215 175.439 141.363 176.08 142.134C176.721 142.904 177.655 143.287 178.881 143.287C179.798 143.287 180.574 142.978 181.215 142.353C181.85 141.729 182.182 140.941 182.221 139.99H180.697C180.664 140.609 180.489 141.082 180.169 141.414C179.843 141.745 179.415 141.909 178.881 141.909ZM187.57 134.235V129.07H185.956V143.107H187.57V135.923C187.766 135.495 188.025 135.141 188.346 134.876C188.661 134.606 189.026 134.471 189.425 134.471C189.943 134.471 190.331 134.634 190.59 134.961C190.848 135.287 190.978 135.838 190.978 136.609V143.107H192.586V136.536C192.564 134.207 191.675 133.037 189.926 133.037C188.97 133.037 188.188 133.436 187.57 134.235ZM198.384 133.222H196.86V143.107H198.474V135.923C198.671 135.495 198.93 135.141 199.245 134.876C199.565 134.606 199.925 134.471 200.33 134.471C200.847 134.471 201.235 134.634 201.494 134.961C201.753 135.287 201.882 135.838 201.882 136.609V143.107H203.491V136.536C203.462 134.207 202.579 133.037 200.83 133.037C199.858 133.037 199.059 133.453 198.429 134.291L198.384 133.222ZM209.525 143.107V133.222H207.911V143.107H209.525ZM209.654 130.601C209.654 130.331 209.575 130.1 209.418 129.909C209.266 129.717 209.036 129.622 208.732 129.622C208.428 129.622 208.198 129.717 208.046 129.903C207.894 130.094 207.815 130.325 207.815 130.601C207.815 130.871 207.894 131.101 208.046 131.281C208.198 131.467 208.428 131.557 208.732 131.557C209.041 131.557 209.272 131.467 209.424 131.281C209.575 131.101 209.654 130.871 209.654 130.601ZM217.471 143.287C218.905 143.287 219.974 142.797 220.677 141.807L219.833 140.783C219.518 141.177 219.181 141.459 218.815 141.639C218.455 141.819 218.034 141.909 217.561 141.909C216.813 141.909 216.24 141.667 215.84 141.188C215.441 140.705 215.239 139.934 215.239 138.876V138.646H220.755V137.588C220.744 136.03 220.452 134.882 219.878 134.145C219.31 133.408 218.444 133.037 217.286 133.037C216.138 133.037 215.239 133.459 214.597 134.297C213.956 135.129 213.636 136.288 213.636 137.762V138.961C213.647 140.378 213.979 141.453 214.637 142.19C215.295 142.921 216.24 143.287 217.471 143.287ZM217.286 134.426C217.887 134.426 218.337 134.629 218.635 135.028C218.928 135.433 219.096 136.103 219.141 137.042V137.262H215.25C215.295 136.288 215.475 135.574 215.795 135.118C216.121 134.657 216.616 134.426 217.286 134.426ZM227.048 138.584L229.731 143.107H231.615L228.061 137.352L231.204 133.222H229.27L226.188 137.47V129.07H224.574V143.107H226.188V139.568L227.048 138.584Z" fill="#12AB1E"/>
<defs>
<linearGradient id="paint0_linear_282_5" x1="74.1863" y1="81.6703" x2="168.138" y2="-12.2463" gradientUnits="userSpaceOnUse">
<stop stop-color="#12F93A"/>
<stop offset="1" stop-color="#008C2B"/>
</linearGradient>
</defs>
</svg>
