<svg width="269" height="53" viewBox="0 0 269 53" fill="none" xmlns="http://www.w3.org/2000/svg">
<path d="M262.818 30.4485L257.519 30.4774C257.423 30.4774 257.375 30.4293 257.375 30.333L257.433 10.0197C257.433 9.94266 257.471 9.90416 257.548 9.90416L263.078 9.87529C264.175 9.84641 265.166 10.0967 266.052 10.626C266.947 11.1554 267.659 11.8725 268.189 12.7772C268.728 13.6723 268.997 14.6637 268.997 15.7513V24.2405C268.997 25.3762 268.723 26.4157 268.174 27.3589C267.616 28.2925 266.875 29.0385 265.951 29.5967C265.027 30.1453 263.982 30.4293 262.818 30.4485ZM263.078 13.4124L261.013 13.4413L260.984 26.8392H262.818C263.549 26.8392 264.165 26.5841 264.666 26.074C265.166 25.5639 265.417 24.9527 265.417 24.2405V15.7224C265.417 15.0968 265.186 14.553 264.724 14.091C264.262 13.6194 263.713 13.3932 263.078 13.4124Z" fill="#B5905C"/>
<path d="M254.634 30.4775H245.076C244.999 30.4775 244.961 30.4294 244.961 30.3332L244.99 10.0198C244.99 9.9428 245.028 9.9043 245.105 9.9043H254.605C254.682 9.9043 254.721 9.95242 254.721 10.0487V13.3548C254.721 13.4318 254.682 13.4703 254.605 13.4703H248.541V18.0903H254.605C254.682 18.0903 254.721 18.1288 254.721 18.2058L254.749 21.5552C254.749 21.6322 254.711 21.6707 254.634 21.6707H248.541V26.8393H254.634C254.711 26.8393 254.749 26.8874 254.749 26.9837V30.362C254.749 30.439 254.711 30.4775 254.634 30.4775Z" fill="#B5905C"/>
<path d="M236.916 30.7663C235.867 30.7663 234.899 30.4968 234.014 29.9578C233.138 29.4188 232.431 28.7018 231.892 27.8066C231.362 26.9019 231.098 25.9105 231.098 24.8325L231.127 15.4627C231.127 14.3655 231.391 13.3789 231.921 12.503C232.44 11.6176 233.143 10.9101 234.028 10.3808C234.914 9.84176 235.876 9.57227 236.916 9.57227C237.994 9.57227 238.961 9.83695 239.818 10.3663C240.684 10.8957 241.377 11.6079 241.897 12.503C242.426 13.3885 242.691 14.3751 242.691 15.4627L242.72 24.8325C242.72 25.9105 242.46 26.8971 241.94 27.7922C241.411 28.6969 240.708 29.4188 239.832 29.9578C238.956 30.4968 237.984 30.7663 236.916 30.7663ZM236.916 27.2003C237.513 27.2003 238.032 26.9597 238.475 26.4784C238.918 25.9875 239.139 25.4389 239.139 24.8325L239.11 15.4627C239.11 14.8082 238.903 14.2548 238.49 13.8024C238.076 13.35 237.551 13.1239 236.916 13.1239C236.31 13.1239 235.79 13.3452 235.357 13.788C234.924 14.2307 234.707 14.789 234.707 15.4627V24.8325C234.707 25.4774 234.924 26.0357 235.357 26.5073C235.79 26.9693 236.31 27.2003 236.916 27.2003Z" fill="#B5905C"/>
<path d="M223.55 30.7663C222.481 30.7663 221.519 30.5016 220.662 29.9722C219.796 29.4429 219.098 28.7306 218.569 27.8355C218.049 26.9404 217.789 25.9394 217.789 24.8325V15.4627C217.789 14.3847 218.054 13.403 218.583 12.5175C219.103 11.6224 219.801 10.9101 220.677 10.3808C221.552 9.84176 222.51 9.57227 223.55 9.57227C224.637 9.57227 225.619 9.83214 226.495 10.3519C227.371 10.8813 228.064 11.5887 228.574 12.4742C229.094 13.3597 229.353 14.3558 229.353 15.4627V16.8198C229.353 16.8968 229.305 16.9353 229.209 16.9353H225.888C225.811 16.9353 225.773 16.8968 225.773 16.8198V15.6937C225.773 14.943 225.561 14.3222 225.138 13.8313C224.714 13.3404 224.185 13.095 223.55 13.095C222.982 13.095 222.476 13.3308 222.034 13.8024C221.591 14.274 221.37 14.8275 221.37 15.4627V24.8325C221.37 25.4774 221.586 26.0357 222.019 26.5073C222.452 26.9693 222.962 27.2003 223.55 27.2003C224.185 27.2003 224.714 26.9741 225.138 26.5217C225.561 26.0597 225.773 25.4967 225.773 24.8325V23.3744H223.708C223.603 23.3744 223.55 23.3262 223.55 23.23V19.9238C223.55 19.8276 223.603 19.7795 223.708 19.7795H229.238C229.315 19.7795 229.353 19.8276 229.353 19.9238V24.8325C229.353 25.9394 229.094 26.9404 228.574 27.8355C228.044 28.7306 227.347 29.4429 226.48 29.9722C225.614 30.5016 224.637 30.7663 223.55 30.7663Z" fill="#B5905C"/>
<path d="M213.215 30.4775H209.88C209.794 30.4775 209.75 30.4294 209.75 30.3332V13.4703H205.91C205.814 13.4703 205.766 13.4222 205.766 13.3259L205.794 10.0198C205.794 9.9428 205.833 9.9043 205.91 9.9043H217.142C217.248 9.9043 217.301 9.9428 217.301 10.0198V13.3259C217.301 13.4222 217.263 13.4703 217.186 13.4703H213.302L213.331 30.3332C213.331 30.4294 213.292 30.4775 213.215 30.4775Z" fill="#B5905C"/>
<path d="M199.657 30.7657C198.607 30.7657 197.64 30.4962 196.755 29.9573C195.879 29.4183 195.176 28.7012 194.647 27.8061C194.127 26.9013 193.867 25.91 193.867 24.832V23.4749C193.867 23.369 193.915 23.3161 194.012 23.3161H197.332C197.409 23.3161 197.448 23.369 197.448 23.4749V24.832C197.448 25.4769 197.664 26.0351 198.097 26.5067C198.53 26.9687 199.05 27.1997 199.657 27.1997C200.273 27.1997 200.797 26.9639 201.23 26.4923C201.663 26.011 201.88 25.4576 201.88 24.832C201.88 24.1101 201.408 23.4797 200.465 22.9407C200.311 22.8444 200.109 22.729 199.859 22.5942C199.618 22.4498 199.329 22.2862 198.992 22.1033C198.656 21.9205 198.328 21.7424 198.011 21.5691C197.693 21.3863 197.385 21.213 197.087 21.0494C196.009 20.4142 195.205 19.6201 194.676 18.6672C194.156 17.7048 193.896 16.6268 193.896 15.4333C193.896 14.336 194.166 13.3447 194.705 12.4592C195.244 11.5833 195.946 10.8903 196.812 10.3802C197.688 9.86046 198.636 9.60059 199.657 9.60059C200.706 9.60059 201.668 9.86046 202.544 10.3802C203.42 10.9096 204.118 11.6122 204.637 12.4881C205.167 13.3639 205.432 14.3457 205.432 15.4333V17.8588C205.432 17.9358 205.393 17.9742 205.316 17.9742H201.995C201.918 17.9742 201.88 17.9358 201.88 17.8588L201.851 15.4333C201.851 14.7403 201.634 14.1772 201.201 13.7441C200.768 13.311 200.253 13.0944 199.657 13.0944C199.05 13.0944 198.53 13.3254 198.097 13.7874C197.664 14.2494 197.448 14.798 197.448 15.4333C197.448 16.0781 197.582 16.6171 197.852 17.0503C198.131 17.4834 198.636 17.8973 199.368 18.2919C199.445 18.3304 199.623 18.4266 199.902 18.5806C200.181 18.7346 200.489 18.9079 200.826 19.1004C201.172 19.2832 201.485 19.4517 201.764 19.6057C202.044 19.75 202.212 19.8367 202.27 19.8655C203.251 20.4142 204.026 21.0879 204.594 21.8868C205.172 22.6856 205.46 23.6674 205.46 24.832C205.46 25.9581 205.201 26.9687 204.681 27.8638C204.151 28.759 203.449 29.4664 202.573 29.9861C201.697 30.5059 200.725 30.7657 199.657 30.7657Z" fill="#B5905C"/>
<path d="M181.016 30.3332L184.683 10.0198C184.702 9.9428 184.75 9.9043 184.827 9.9043H189.115C189.192 9.9043 189.24 9.9428 189.259 10.0198L192.782 30.3332C192.792 30.4294 192.753 30.4775 192.667 30.4775H189.389C189.293 30.4775 189.24 30.4294 189.23 30.3332L188.913 28.1675H184.885L184.567 30.3332C184.558 30.4294 184.509 30.4775 184.423 30.4775H181.131C181.054 30.4775 181.016 30.4294 181.016 30.3332ZM186.805 16.7043L185.477 25.0058H188.321L187.108 16.7043L186.935 15.6071L186.805 16.7043Z" fill="#B5905C"/>
<path d="M178.491 30.4775H174.911C174.824 30.4775 174.776 30.4294 174.766 30.3332L170.681 10.0198C170.661 9.9428 170.7 9.9043 170.796 9.9043H174.146C174.223 9.9043 174.271 9.9428 174.29 10.0198L176.715 23.562L179.083 10.0198C179.102 9.9428 179.151 9.9043 179.228 9.9043H182.534C182.64 9.9043 182.678 9.9428 182.649 10.0198L178.636 30.3332C178.626 30.4294 178.578 30.4775 178.491 30.4775Z" fill="#B5905C"/>
<path d="M156.055 30.7657C155.006 30.7657 154.039 30.4962 153.153 29.9573C152.277 29.4183 151.575 28.7012 151.045 27.8061C150.525 26.9013 150.266 25.91 150.266 24.832V23.4749C150.266 23.369 150.314 23.3161 150.41 23.3161H153.731C153.808 23.3161 153.846 23.369 153.846 23.4749V24.832C153.846 25.4769 154.063 26.0351 154.496 26.5067C154.929 26.9687 155.449 27.1997 156.055 27.1997C156.671 27.1997 157.196 26.9639 157.629 26.4923C158.062 26.011 158.278 25.4576 158.278 24.832C158.278 24.1101 157.807 23.4797 156.863 22.9407C156.709 22.8444 156.507 22.729 156.257 22.5942C156.017 22.4498 155.728 22.2862 155.391 22.1033C155.054 21.9205 154.727 21.7424 154.409 21.5691C154.092 21.3863 153.784 21.213 153.485 21.0494C152.407 20.4142 151.603 19.6201 151.074 18.6672C150.554 17.7048 150.294 16.6268 150.294 15.4333C150.294 14.336 150.564 13.3447 151.103 12.4592C151.642 11.5833 152.345 10.8903 153.211 10.3802C154.087 9.86046 155.035 9.60059 156.055 9.60059C157.104 9.60059 158.067 9.86046 158.942 10.3802C159.818 10.9096 160.516 11.6122 161.036 12.4881C161.565 13.3639 161.83 14.3457 161.83 15.4333V17.8588C161.83 17.9358 161.791 17.9742 161.714 17.9742H158.394C158.317 17.9742 158.278 17.9358 158.278 17.8588L158.249 15.4333C158.249 14.7403 158.033 14.1772 157.6 13.7441C157.167 13.311 156.652 13.0944 156.055 13.0944C155.449 13.0944 154.929 13.3254 154.496 13.7874C154.063 14.2494 153.846 14.798 153.846 15.4333C153.846 16.0781 153.981 16.6171 154.25 17.0503C154.529 17.4834 155.035 17.8973 155.766 18.2919C155.843 18.3304 156.021 18.4266 156.3 18.5806C156.58 18.7346 156.888 18.9079 157.224 19.1004C157.571 19.2832 157.884 19.4517 158.163 19.6057C158.442 19.75 158.61 19.8367 158.668 19.8655C159.65 20.4142 160.425 21.0879 160.993 21.8868C161.57 22.6856 161.859 23.6674 161.859 24.832C161.859 25.9581 161.599 26.9687 161.079 27.8638C160.55 28.759 159.847 29.4664 158.971 29.9861C158.095 30.5059 157.123 30.7657 156.055 30.7657Z" fill="#353435"/>
<path d="M142.99 30.7663C141.941 30.7663 140.974 30.4968 140.088 29.9578C139.212 29.4188 138.505 28.7018 137.966 27.8066C137.437 26.9019 137.172 25.9105 137.172 24.8325L137.201 15.4627C137.201 14.3655 137.465 13.3789 137.995 12.503C138.515 11.6176 139.217 10.9101 140.103 10.3808C140.988 9.84176 141.951 9.57227 142.99 9.57227C144.068 9.57227 145.035 9.83695 145.892 10.3663C146.758 10.8957 147.451 11.6079 147.971 12.503C148.5 13.3885 148.765 14.3751 148.765 15.4627L148.794 24.8325C148.794 25.9105 148.534 26.8971 148.014 27.7922C147.485 28.6969 146.782 29.4188 145.906 29.9578C145.031 30.4968 144.058 30.7663 142.99 30.7663ZM142.99 27.2003C143.587 27.2003 144.107 26.9597 144.549 26.4784C144.992 25.9875 145.213 25.4389 145.213 24.8325L145.185 15.4627C145.185 14.8082 144.978 14.2548 144.564 13.8024C144.15 13.35 143.625 13.1239 142.99 13.1239C142.384 13.1239 141.864 13.3452 141.431 13.788C140.998 14.2307 140.781 14.789 140.781 15.4627V24.8325C140.781 25.4774 140.998 26.0357 141.431 26.5073C141.864 26.9693 142.384 27.2003 142.99 27.2003Z" fill="#353435"/>
<path d="M129.475 30.7663C128.425 30.7663 127.458 30.4968 126.573 29.9578C125.697 29.4188 124.989 28.7018 124.45 27.8066C123.921 26.9019 123.656 25.9105 123.656 24.8325L123.685 15.4627C123.685 14.3655 123.95 13.3789 124.479 12.503C124.999 11.6176 125.702 10.9101 126.587 10.3808C127.473 9.84176 128.435 9.57227 129.475 9.57227C130.552 9.57227 131.52 9.83695 132.376 10.3663C133.243 10.8957 133.936 11.6079 134.455 12.503C134.985 13.3885 135.249 14.3751 135.249 15.4627L135.278 24.8325C135.278 25.9105 135.018 26.8971 134.499 27.7922C133.969 28.6969 133.267 29.4188 132.391 29.9578C131.515 30.4968 130.543 30.7663 129.475 30.7663ZM129.475 27.2003C130.071 27.2003 130.591 26.9597 131.034 26.4784C131.476 25.9875 131.698 25.4389 131.698 24.8325L131.669 15.4627C131.669 14.8082 131.462 14.2548 131.048 13.8024C130.634 13.35 130.11 13.1239 129.475 13.1239C128.868 13.1239 128.348 13.3452 127.915 13.788C127.482 14.2307 127.266 14.789 127.266 15.4627V24.8325C127.266 25.4774 127.482 26.0357 127.915 26.5073C128.348 26.9693 128.868 27.2003 129.475 27.2003Z" fill="#353435"/>
<path d="M121.923 30.4775H112.365C112.288 30.4775 112.25 30.4294 112.25 30.3332L112.279 10.0487C112.279 9.95242 112.327 9.9043 112.423 9.9043H115.715C115.811 9.9043 115.859 9.95242 115.859 10.0487L115.83 26.8393H121.923C122.019 26.8393 122.067 26.8874 122.067 26.9837V30.3332C122.067 30.4294 122.019 30.4775 121.923 30.4775Z" fill="#353435"/>
<path d="M109.509 30.4775H99.9514C99.8744 30.4775 99.8359 30.4294 99.8359 30.3332L99.8648 10.0198C99.8648 9.9428 99.9033 9.9043 99.9803 9.9043H109.48C109.557 9.9043 109.596 9.95242 109.596 10.0487V13.3548C109.596 13.4318 109.557 13.4703 109.48 13.4703H103.416V18.0903H109.48C109.557 18.0903 109.596 18.1288 109.596 18.2058L109.624 21.5552C109.624 21.6322 109.586 21.6707 109.509 21.6707H103.416V26.8393H109.509C109.586 26.8393 109.624 26.8874 109.624 26.9837V30.362C109.624 30.439 109.586 30.4775 109.509 30.4775Z" fill="#353435"/>
<path d="M91.9402 30.7663C90.8718 30.7663 89.9093 30.5016 89.0527 29.9722C88.1865 29.4429 87.4887 28.7306 86.9593 27.8355C86.4396 26.9404 86.1797 25.9394 86.1797 24.8325V15.4627C86.1797 14.3847 86.4444 13.403 86.9737 12.5175C87.4935 11.6224 88.1913 10.9101 89.0672 10.3808C89.943 9.84176 90.9007 9.57227 91.9402 9.57227C93.0278 9.57227 94.0095 9.83214 94.8854 10.3519C95.7613 10.8813 96.4543 11.5887 96.9644 12.4742C97.4841 13.3597 97.744 14.3558 97.744 15.4627V16.8198C97.744 16.8968 97.6959 16.9353 97.5996 16.9353H94.279C94.202 16.9353 94.1635 16.8968 94.1635 16.8198V15.6937C94.1635 14.943 93.9518 14.3222 93.5283 13.8313C93.1048 13.3404 92.5754 13.095 91.9402 13.095C91.3723 13.095 90.867 13.3308 90.4243 13.8024C89.9815 14.274 89.7602 14.8275 89.7602 15.4627V24.8325C89.7602 25.4774 89.9767 26.0357 90.4098 26.5073C90.843 26.9693 91.3531 27.2003 91.9402 27.2003C92.5754 27.2003 93.1048 26.9741 93.5283 26.5217C93.9518 26.0597 94.1635 25.4967 94.1635 24.8325V23.3744H92.099C91.9931 23.3744 91.9402 23.3262 91.9402 23.23V19.9238C91.9402 19.8276 91.9931 19.7795 92.099 19.7795H97.6285C97.7055 19.7795 97.744 19.8276 97.744 19.9238V24.8325C97.744 25.9394 97.4841 26.9404 96.9644 27.8355C96.435 28.7306 95.7372 29.4429 94.871 29.9722C94.0047 30.5016 93.0278 30.7663 91.9402 30.7663Z" fill="#353435"/>
<path d="M76.3322 30.4775H72.9827C72.9057 30.4775 72.8672 30.4294 72.8672 30.3332L72.9249 10.0198C72.9249 9.9428 72.9634 9.9043 73.0404 9.9043H79.0175C80.0859 9.9043 81.0676 10.1642 81.9627 10.6839C82.8578 11.2037 83.5701 11.9015 84.0994 12.7773C84.6384 13.6532 84.9079 14.6446 84.9079 15.7514C84.9079 16.4733 84.7973 17.1278 84.5759 17.7149C84.3545 18.302 84.0946 18.7977 83.7963 19.202C83.5075 19.6062 83.2428 19.9046 83.0022 20.0971C84.0706 21.2809 84.6048 22.6717 84.6048 24.2695L84.6336 30.3332C84.6336 30.4294 84.5855 30.4775 84.4893 30.4775H81.1398C81.0628 30.4775 81.0243 30.4486 81.0243 30.3909V24.2695C81.0243 23.5572 80.774 22.9412 80.2735 22.4215C79.7731 21.9017 79.1571 21.6419 78.4256 21.6419H76.4765L76.4477 30.3332C76.4477 30.4294 76.4092 30.4775 76.3322 30.4775ZM79.0175 13.4414H76.4765V18.0903H79.0175C79.6239 18.0903 80.1629 17.8641 80.6345 17.4117C81.1157 16.9593 81.3563 16.4059 81.3563 15.7514C81.3563 15.1258 81.1254 14.5868 80.6634 14.1344C80.2014 13.6724 79.6527 13.4414 79.0175 13.4414Z" fill="#353435"/>
<path d="M64.8261 30.7663C63.777 30.7663 62.8096 30.4968 61.9242 29.9578C61.0483 29.4188 60.3409 28.7018 59.8019 27.8066C59.2725 26.9019 59.0078 25.9105 59.0078 24.8325L59.0367 15.4627C59.0367 14.3655 59.3014 13.3789 59.8307 12.503C60.3505 11.6176 61.0531 10.9101 61.9386 10.3808C62.8241 9.84176 63.7866 9.57227 64.8261 9.57227C65.9041 9.57227 66.8714 9.83695 67.728 10.3663C68.5942 10.8957 69.2872 11.6079 69.807 12.503C70.3363 13.3885 70.601 14.3751 70.601 15.4627L70.6299 24.8325C70.6299 25.9105 70.37 26.8971 69.8503 27.7922C69.3209 28.6969 68.6183 29.4188 67.7424 29.9578C66.8665 30.4968 65.8944 30.7663 64.8261 30.7663ZM64.8261 27.2003C65.4228 27.2003 65.9426 26.9597 66.3853 26.4784C66.828 25.9875 67.0494 25.4389 67.0494 24.8325L67.0205 15.4627C67.0205 14.8082 66.8136 14.2548 66.3997 13.8024C65.9859 13.35 65.4613 13.1239 64.8261 13.1239C64.2197 13.1239 63.7 13.3452 63.2668 13.788C62.8337 14.2307 62.6172 14.789 62.6172 15.4627V24.8325C62.6172 25.4774 62.8337 26.0357 63.2668 26.5073C63.7 26.9693 64.2197 27.2003 64.8261 27.2003Z" fill="#353435"/>
<path d="M57.3464 30.4775H46.3162C46.22 30.4775 46.1719 30.4294 46.1719 30.3332L46.2007 27.1136L53.4483 13.2682H46.5906C46.5039 13.2682 46.4606 13.2297 46.4606 13.1527V10.0487C46.4606 9.95242 46.5039 9.9043 46.5906 9.9043H57.2886C57.3849 9.9043 57.433 9.95242 57.433 10.0487V13.2393L50.2288 27.0126H57.3464C57.4234 27.0126 57.4619 27.0655 57.4619 27.1714L57.4908 30.3332C57.4908 30.4294 57.4426 30.4775 57.3464 30.4775Z" fill="#353435"/>
<path d="M261.054 48.8642C260.335 48.8642 259.722 48.691 259.215 48.3445C258.709 47.998 258.322 47.5049 258.056 46.8652C257.795 46.2255 257.664 45.4686 257.664 44.5943C257.664 43.6508 257.805 42.8618 258.088 42.2275C258.376 41.5931 258.776 41.116 259.287 40.7962C259.799 40.4763 260.393 40.3164 261.07 40.3164C261.593 40.3164 262.049 40.4257 262.438 40.6443C262.832 40.8628 263.157 41.164 263.413 41.5478V36.8701H264.773V48.6563H263.717L263.653 47.345C263.419 47.8034 263.088 48.1712 262.662 48.4484C262.24 48.7256 261.705 48.8642 261.054 48.8642ZM261.278 47.8967C261.785 47.8967 262.198 47.7661 262.518 47.5049C262.843 47.2437 263.083 46.8625 263.237 46.3615C263.397 45.855 263.477 45.2367 263.477 44.5064C263.477 43.7174 263.373 43.0884 263.165 42.6193C262.963 42.1449 262.686 41.8037 262.334 41.5958C261.982 41.3879 261.59 41.2839 261.158 41.2839C260.455 41.2839 259.924 41.5611 259.567 42.1155C259.215 42.6646 259.039 43.4695 259.039 44.5304C259.039 45.6605 259.221 46.5054 259.583 47.0651C259.946 47.6195 260.511 47.8967 261.278 47.8967Z" fill="#444343"/>
<path d="M253.084 48.8652C252.236 48.8652 251.543 48.6679 251.005 48.2735C250.471 47.879 250.077 47.3566 249.821 46.7062C249.571 46.0559 249.445 45.3469 249.445 44.5793C249.445 43.7264 249.584 42.9801 249.861 42.3404C250.138 41.7007 250.543 41.2049 251.077 40.8531C251.61 40.496 252.255 40.3174 253.012 40.3174C253.774 40.3174 254.395 40.488 254.875 40.8291C255.36 41.165 255.717 41.6234 255.946 42.2045C256.181 42.7802 256.298 43.4332 256.298 44.1635C256.298 44.1848 256.295 44.2381 256.29 44.3234C256.29 44.4034 256.287 44.4887 256.282 44.5793C256.282 44.6646 256.279 44.7312 256.274 44.7792H250.805C250.81 45.3229 250.887 45.832 251.037 46.3064C251.191 46.7755 251.434 47.1567 251.764 47.4499C252.095 47.7431 252.526 47.8897 253.06 47.8897C253.614 47.8897 254.059 47.7457 254.395 47.4579C254.731 47.1647 254.968 46.8102 255.107 46.3944L256.122 46.6263C255.999 47.1007 255.786 47.5059 255.482 47.8417C255.184 48.1722 254.827 48.4254 254.411 48.6013C253.995 48.7719 253.553 48.8599 253.084 48.8652ZM250.805 43.8836H255.027C255.021 43.0627 254.861 42.4257 254.547 41.9726C254.238 41.5141 253.718 41.2849 252.988 41.2849C252.62 41.2849 252.303 41.3595 252.036 41.5088C251.77 41.6581 251.548 41.858 251.372 42.1085C251.202 42.359 251.069 42.6389 250.973 42.9481C250.882 43.2519 250.826 43.5638 250.805 43.8836Z" fill="#444343"/>
<path d="M244.317 48.8652C243.224 48.8652 242.35 48.5054 241.694 47.7857C241.044 47.0607 240.719 45.9946 240.719 44.5873C240.719 43.1853 241.044 42.1245 241.694 41.4048C242.35 40.6799 243.224 40.3174 244.317 40.3174C245.41 40.3174 246.281 40.6799 246.932 41.4048C247.582 42.1245 247.907 43.1853 247.907 44.5873C247.907 45.9946 247.582 47.0607 246.932 47.7857C246.281 48.5054 245.41 48.8652 244.317 48.8652ZM244.317 47.8977C244.914 47.8977 245.37 47.7351 245.684 47.4099C246.004 47.0847 246.223 46.6689 246.34 46.1625C246.463 45.6508 246.524 45.1257 246.524 44.5873C246.524 44.0489 246.463 43.5265 246.34 43.0201C246.223 42.5136 246.004 42.0978 245.684 41.7727C245.37 41.4422 244.914 41.2769 244.317 41.2769C243.725 41.2769 243.269 41.4422 242.95 41.7727C242.63 42.0978 242.409 42.5136 242.286 43.0201C242.169 43.5265 242.11 44.0489 242.11 44.5873C242.11 45.1257 242.169 45.6508 242.286 46.1625C242.409 46.6689 242.63 47.0847 242.95 47.4099C243.269 47.7351 243.725 47.8977 244.317 47.8977Z" fill="#444343"/>
<path d="M235.342 52.2555C234.606 52.2555 233.972 52.1169 233.439 51.8397C232.906 51.5679 232.498 51.256 232.215 50.9042L232.951 50.1526C233.218 50.4831 233.535 50.7443 233.903 50.9362C234.27 51.1334 234.75 51.232 235.342 51.232C236.168 51.232 236.752 50.9815 237.093 50.4804C237.44 49.9846 237.613 49.2943 237.613 48.4094V47.6578C237.368 48.0309 237.045 48.3268 236.645 48.5453C236.245 48.7586 235.758 48.8652 235.182 48.8652C234.462 48.8652 233.839 48.6893 233.311 48.3374C232.788 47.9856 232.386 47.4899 232.103 46.8502C231.821 46.2105 231.68 45.4589 231.68 44.5953C231.68 43.6624 231.829 42.8788 232.127 42.2444C232.431 41.6101 232.844 41.1303 233.367 40.8051C233.895 40.48 234.494 40.3174 235.166 40.3174C235.742 40.3174 236.24 40.4507 236.661 40.7172C237.082 40.9784 237.421 41.3382 237.677 41.7967L237.805 40.4933H238.964V48.4014C238.964 49.2437 238.82 49.95 238.532 50.5204C238.244 51.0908 237.829 51.5225 237.285 51.8157C236.747 52.1089 236.099 52.2555 235.342 52.2555ZM235.254 47.8977C235.84 47.8977 236.304 47.7804 236.645 47.5458C236.992 47.3113 237.24 46.9541 237.389 46.4744C237.538 45.9893 237.613 45.3762 237.613 44.6353C237.613 43.9902 237.551 43.4518 237.429 43.0201C237.312 42.5883 237.144 42.2444 236.925 41.9886C236.712 41.7327 236.461 41.5514 236.173 41.4448C235.891 41.3329 235.582 41.2769 235.246 41.2769C234.569 41.2769 234.033 41.5648 233.639 42.1405C233.25 42.7109 233.055 43.5131 233.055 44.5473C233.055 45.6508 233.247 46.485 233.631 47.0501C234.02 47.6151 234.561 47.8977 235.254 47.8977Z" fill="#444343"/>
<path d="M229.351 48.8011C228.898 48.8011 228.507 48.7158 228.176 48.5452C227.846 48.3746 227.59 48.0974 227.408 47.7136C227.232 47.3245 227.145 46.8074 227.145 46.1624V41.4207H225.953V40.4932H227.145L227.201 37.9104L228.504 37.5586V40.4932H230.295V41.4207H228.504V46.3943C228.504 46.9113 228.594 47.2738 228.776 47.4817C228.957 47.6843 229.208 47.7882 229.527 47.7936C229.698 47.7936 229.871 47.7722 230.047 47.7296C230.228 47.6816 230.407 47.6203 230.583 47.5457L230.807 48.4333C230.62 48.5345 230.396 48.6198 230.135 48.6891C229.874 48.7638 229.613 48.8011 229.351 48.8011Z" fill="#444343"/>
<path d="M221.875 48.8652C221.438 48.8652 221.009 48.8039 220.588 48.6813C220.172 48.564 219.804 48.3588 219.484 48.0656C219.17 47.7724 218.943 47.3726 218.805 46.8662L219.804 46.4584C219.937 46.8049 220.089 47.0847 220.26 47.298C220.431 47.5059 220.652 47.6578 220.924 47.7537C221.201 47.8497 221.555 47.8977 221.987 47.8977C222.547 47.8977 223.003 47.8044 223.354 47.6178C223.706 47.4312 223.882 47.0714 223.882 46.5383C223.882 46.2611 223.853 46.0426 223.794 45.8826C223.741 45.7174 223.632 45.5868 223.466 45.4908C223.306 45.3949 223.069 45.3069 222.755 45.227C222.446 45.147 222.035 45.0511 221.523 44.9391C220.969 44.8112 220.508 44.6699 220.14 44.5153C219.778 44.3607 219.506 44.1368 219.324 43.8437C219.149 43.5451 219.061 43.1267 219.061 42.5883C219.061 41.8526 219.34 41.2902 219.9 40.9011C220.46 40.512 221.19 40.3174 222.091 40.3174C222.805 40.3174 223.392 40.4347 223.85 40.6692C224.309 40.9038 224.682 41.3222 224.97 41.9246C224.97 41.9246 224.927 41.9486 224.842 41.9966C224.756 42.0445 224.655 42.1005 224.538 42.1645C224.426 42.2231 224.327 42.2791 224.242 42.3324C224.157 42.3804 224.114 42.4044 224.114 42.4044C223.917 41.9939 223.669 41.7034 223.37 41.5328C223.077 41.3622 222.669 41.2769 222.147 41.2769C221.47 41.2769 220.998 41.3862 220.732 41.6048C220.465 41.8233 220.332 42.1591 220.332 42.6123C220.332 42.9054 220.385 43.132 220.492 43.2919C220.604 43.4465 220.798 43.5718 221.076 43.6677C221.353 43.7584 221.745 43.857 222.251 43.9636C222.928 44.1022 223.472 44.2621 223.882 44.4434C224.293 44.6246 224.591 44.8671 224.778 45.171C224.97 45.4748 225.066 45.8853 225.066 46.4024C225.066 47.202 224.815 47.8124 224.314 48.2335C223.818 48.6546 223.005 48.8652 221.875 48.8652Z" fill="#444343"/>
<path d="M213.4 48.8732C212.952 48.8732 212.544 48.7985 212.176 48.6493C211.808 48.5 211.515 48.2735 211.297 47.9696C211.078 47.6604 210.969 47.2686 210.969 46.7942C210.969 46.2825 211.062 45.8693 211.249 45.5548C211.441 45.235 211.715 44.9844 212.072 44.8032C212.435 44.6166 212.869 44.47 213.376 44.3634C213.882 44.2568 214.45 44.1555 215.079 44.0595L215.982 43.9236V43.5158C215.982 42.9508 215.934 42.5083 215.838 42.1885C215.748 41.8633 215.58 41.6314 215.335 41.4928C215.095 41.3542 214.746 41.2849 214.287 41.2849C213.786 41.2849 213.33 41.3569 212.92 41.5008C212.515 41.6447 212.123 41.8553 211.744 42.1325C211.744 42.1325 211.715 42.0925 211.656 42.0125C211.603 41.9273 211.542 41.8313 211.473 41.7247C211.403 41.6181 211.339 41.5248 211.281 41.4448C211.227 41.3649 211.201 41.3249 211.201 41.3249C211.643 40.9944 212.11 40.7438 212.6 40.5733C213.096 40.4027 213.679 40.3174 214.351 40.3174C215.321 40.3174 216.062 40.5573 216.574 41.037C217.086 41.5115 217.342 42.2551 217.342 43.2679V48.6733H216.174L216.054 47.6498C215.766 48.0496 215.399 48.3534 214.951 48.5613C214.503 48.7692 213.986 48.8732 213.4 48.8732ZM213.615 47.9137C214.101 47.9137 214.535 47.8124 214.919 47.6098C215.308 47.4072 215.662 47.114 215.982 46.7302V44.7872L214.943 44.9631C214.202 45.0857 213.634 45.2136 213.24 45.3469C212.85 45.4802 212.584 45.6481 212.44 45.8507C212.301 46.0532 212.232 46.3198 212.232 46.6503C212.232 47.0767 212.336 47.3939 212.544 47.6018C212.752 47.8097 213.109 47.9137 213.615 47.9137Z" fill="#444343"/>
<path d="M205.772 48.6731L202.758 40.4932H204.125L206.428 46.97L208.763 40.4932H210.074L206.948 48.6731H205.772Z" fill="#444343"/>
<path d="M195.328 48.8652C194.891 48.8652 194.462 48.8039 194.041 48.6813C193.625 48.564 193.257 48.3588 192.937 48.0656C192.623 47.7724 192.396 47.3726 192.258 46.8662L193.257 46.4584C193.391 46.8049 193.543 47.0847 193.713 47.298C193.884 47.5059 194.105 47.6578 194.377 47.7537C194.654 47.8497 195.008 47.8977 195.44 47.8977C196 47.8977 196.456 47.8044 196.808 47.6178C197.159 47.4312 197.335 47.0714 197.335 46.5383C197.335 46.2611 197.306 46.0426 197.247 45.8826C197.194 45.7174 197.085 45.5868 196.92 45.4908C196.76 45.3949 196.522 45.3069 196.208 45.227C195.899 45.147 195.488 45.0511 194.976 44.9391C194.422 44.8112 193.961 44.6699 193.593 44.5153C193.231 44.3607 192.959 44.1368 192.778 43.8437C192.602 43.5451 192.514 43.1267 192.514 42.5883C192.514 41.8526 192.794 41.2902 193.353 40.9011C193.913 40.512 194.643 40.3174 195.544 40.3174C196.259 40.3174 196.845 40.4347 197.303 40.6692C197.762 40.9038 198.135 41.3222 198.423 41.9246C198.423 41.9246 198.38 41.9486 198.295 41.9966C198.21 42.0445 198.108 42.1005 197.991 42.1645C197.879 42.2231 197.78 42.2791 197.695 42.3324C197.61 42.3804 197.567 42.4044 197.567 42.4044C197.37 41.9939 197.122 41.7034 196.824 41.5328C196.53 41.3622 196.123 41.2769 195.6 41.2769C194.923 41.2769 194.451 41.3862 194.185 41.6048C193.918 41.8233 193.785 42.1591 193.785 42.6123C193.785 42.9054 193.838 43.132 193.945 43.2919C194.057 43.4465 194.251 43.5718 194.529 43.6677C194.806 43.7584 195.198 43.857 195.704 43.9636C196.381 44.1022 196.925 44.2621 197.335 44.4434C197.746 44.6246 198.044 44.8671 198.231 45.171C198.423 45.4748 198.519 45.8853 198.519 46.4024C198.519 47.202 198.268 47.8124 197.767 48.2335C197.271 48.6546 196.458 48.8652 195.328 48.8652Z" fill="#444343"/>
<path d="M187.356 48.8652C186.263 48.8652 185.389 48.5054 184.733 47.7857C184.083 47.0607 183.758 45.9946 183.758 44.5873C183.758 43.1853 184.083 42.1245 184.733 41.4048C185.389 40.6799 186.263 40.3174 187.356 40.3174C188.449 40.3174 189.32 40.6799 189.971 41.4048C190.621 42.1245 190.946 43.1853 190.946 44.5873C190.946 45.9946 190.621 47.0607 189.971 47.7857C189.32 48.5054 188.449 48.8652 187.356 48.8652ZM187.356 47.8977C187.953 47.8977 188.409 47.7351 188.723 47.4099C189.043 47.0847 189.262 46.6689 189.379 46.1625C189.502 45.6508 189.563 45.1257 189.563 44.5873C189.563 44.0489 189.502 43.5265 189.379 43.0201C189.262 42.5136 189.043 42.0978 188.723 41.7727C188.409 41.4422 187.953 41.2769 187.356 41.2769C186.764 41.2769 186.309 41.4422 185.989 41.7727C185.669 42.0978 185.448 42.5136 185.325 43.0201C185.208 43.5265 185.149 44.0489 185.149 44.5873C185.149 45.1257 185.208 45.6508 185.325 46.1625C185.448 46.6689 185.669 47.0847 185.989 47.4099C186.309 47.7351 186.764 47.8977 187.356 47.8977Z" fill="#444343"/>
<path d="M178.637 48.8652C177.544 48.8652 176.67 48.5054 176.015 47.7857C175.364 47.0607 175.039 45.9946 175.039 44.5873C175.039 43.1853 175.364 42.1245 176.015 41.4048C176.67 40.6799 177.544 40.3174 178.637 40.3174C179.73 40.3174 180.602 40.6799 181.252 41.4048C181.902 42.1245 182.228 43.1853 182.228 44.5873C182.228 45.9946 181.902 47.0607 181.252 47.7857C180.602 48.5054 179.73 48.8652 178.637 48.8652ZM178.637 47.8977C179.234 47.8977 179.69 47.7351 180.005 47.4099C180.324 47.0847 180.543 46.6689 180.66 46.1625C180.783 45.6508 180.844 45.1257 180.844 44.5873C180.844 44.0489 180.783 43.5265 180.66 43.0201C180.543 42.5136 180.324 42.0978 180.005 41.7727C179.69 41.4422 179.234 41.2769 178.637 41.2769C178.046 41.2769 177.59 41.4422 177.27 41.7727C176.95 42.0978 176.729 42.5136 176.606 43.0201C176.489 43.5265 176.43 44.0489 176.43 44.5873C176.43 45.1257 176.489 45.6508 176.606 46.1625C176.729 46.6689 176.95 47.0847 177.27 47.4099C177.59 47.7351 178.046 47.8977 178.637 47.8977Z" fill="#444343"/>
<path d="M171.797 48.6729V36.8867H173.156V48.6729H171.797Z" fill="#444343"/>
<path d="M166.904 48.8652C166.056 48.8652 165.363 48.6679 164.825 48.2735C164.292 47.879 163.897 47.3566 163.641 46.7062C163.391 46.0559 163.266 45.3469 163.266 44.5793C163.266 43.7264 163.404 42.9801 163.681 42.3404C163.959 41.7007 164.364 41.2049 164.897 40.8531C165.43 40.496 166.075 40.3174 166.832 40.3174C167.594 40.3174 168.215 40.488 168.695 40.8291C169.18 41.165 169.537 41.6234 169.766 42.2045C170.001 42.7802 170.118 43.4332 170.118 44.1635C170.118 44.1848 170.116 44.2381 170.11 44.3234C170.11 44.4034 170.108 44.4887 170.102 44.5793C170.102 44.6646 170.1 44.7312 170.094 44.7792H164.625C164.63 45.3229 164.708 45.832 164.857 46.3064C165.011 46.7755 165.254 47.1567 165.584 47.4499C165.915 47.7431 166.347 47.8897 166.88 47.8897C167.434 47.8897 167.879 47.7457 168.215 47.4579C168.551 47.1647 168.788 46.8102 168.927 46.3944L169.942 46.6263C169.82 47.1007 169.607 47.5059 169.303 47.8417C169.004 48.1722 168.647 48.4254 168.231 48.6013C167.815 48.7719 167.373 48.8599 166.904 48.8652ZM164.625 43.8836H168.847C168.842 43.0627 168.682 42.4257 168.367 41.9726C168.058 41.5141 167.538 41.2849 166.808 41.2849C166.44 41.2849 166.123 41.3595 165.856 41.5088C165.59 41.6581 165.369 41.858 165.193 42.1085C165.022 42.359 164.889 42.6389 164.793 42.9481C164.702 43.2519 164.646 43.5638 164.625 43.8836Z" fill="#444343"/>
<path d="M157.873 52.2555C157.137 52.2555 156.503 52.1169 155.97 51.8397C155.437 51.5679 155.029 51.256 154.747 50.9042L155.482 50.1526C155.749 50.4831 156.066 50.7443 156.434 50.9362C156.802 51.1334 157.281 51.232 157.873 51.232C158.699 51.232 159.283 50.9815 159.624 50.4804C159.971 49.9846 160.144 49.2943 160.144 48.4094V47.6578C159.899 48.0309 159.576 48.3268 159.176 48.5453C158.777 48.7586 158.289 48.8652 157.713 48.8652C156.994 48.8652 156.37 48.6893 155.842 48.3374C155.32 47.9856 154.917 47.4899 154.635 46.8502C154.352 46.2105 154.211 45.4589 154.211 44.5953C154.211 43.6624 154.36 42.8788 154.659 42.2444C154.963 41.6101 155.376 41.1303 155.898 40.8051C156.426 40.48 157.026 40.3174 157.697 40.3174C158.273 40.3174 158.771 40.4507 159.192 40.7172C159.614 40.9784 159.952 41.3382 160.208 41.7967L160.336 40.4933H161.495V48.4014C161.495 49.2437 161.351 49.95 161.064 50.5204C160.776 51.0908 160.36 51.5225 159.816 51.8157C159.278 52.1089 158.63 52.2555 157.873 52.2555ZM157.785 47.8977C158.372 47.8977 158.835 47.7804 159.176 47.5458C159.523 47.3113 159.771 46.9541 159.92 46.4744C160.069 45.9893 160.144 45.3762 160.144 44.6353C160.144 43.9902 160.083 43.4518 159.96 43.0201C159.843 42.5883 159.675 42.2444 159.456 41.9886C159.243 41.7327 158.993 41.5514 158.705 41.4448C158.422 41.3329 158.113 41.2769 157.777 41.2769C157.1 41.2769 156.564 41.5648 156.17 42.1405C155.781 42.7109 155.586 43.5131 155.586 44.5473C155.586 45.6508 155.778 46.485 156.162 47.0501C156.551 47.6151 157.092 47.8977 157.785 47.8977Z" fill="#444343"/>
<path d="M149.316 48.6736V40.4937H150.668V41.917C150.945 41.3999 151.289 41.0241 151.699 40.7895C152.11 40.5496 152.581 40.4297 153.115 40.4297V41.6291C152.533 41.6291 152.064 41.7597 151.707 42.0209C151.35 42.2821 151.089 42.6233 150.924 43.0444C150.764 43.4655 150.678 43.9186 150.668 44.4037L150.676 48.6736H149.316Z" fill="#444343"/>
<path d="M143.954 48.8652C142.861 48.8652 141.987 48.5054 141.331 47.7857C140.681 47.0607 140.355 45.9946 140.355 44.5873C140.355 43.1853 140.681 42.1245 141.331 41.4048C141.987 40.6799 142.861 40.3174 143.954 40.3174C145.046 40.3174 145.918 40.6799 146.568 41.4048C147.219 42.1245 147.544 43.1853 147.544 44.5873C147.544 45.9946 147.219 47.0607 146.568 47.7857C145.918 48.5054 145.046 48.8652 143.954 48.8652ZM143.954 47.8977C144.551 47.8977 145.007 47.7351 145.321 47.4099C145.641 47.0847 145.859 46.6689 145.977 46.1625C146.099 45.6508 146.161 45.1257 146.161 44.5873C146.161 44.0489 146.099 43.5265 145.977 43.0201C145.859 42.5136 145.641 42.0978 145.321 41.7727C145.007 41.4422 144.551 41.2769 143.954 41.2769C143.362 41.2769 142.906 41.4422 142.586 41.7727C142.267 42.0978 142.045 42.5136 141.923 43.0201C141.805 43.5265 141.747 44.0489 141.747 44.5873C141.747 45.1257 141.805 45.6508 141.923 46.1625C142.045 46.6689 142.267 47.0847 142.586 47.4099C142.906 47.7351 143.362 47.8977 143.954 47.8977Z" fill="#444343"/>
<path d="M133.07 48.6731V47.7616L137.572 41.4847H133.246V40.4932H139.179V41.4127L134.606 47.6896H139.163V48.6731H133.07Z" fill="#444343"/>
<path d="M124.82 48.6736V40.4937H126.172V41.917C126.449 41.3999 126.793 41.0241 127.203 40.7895C127.614 40.5496 128.085 40.4297 128.618 40.4297V41.6291C128.037 41.6291 127.568 41.7597 127.211 42.0209C126.854 42.2821 126.593 42.6233 126.428 43.0444C126.268 43.4655 126.182 43.9186 126.172 44.4037L126.18 48.6736H124.82Z" fill="#444343"/>
<path d="M119.45 48.8652C118.357 48.8652 117.483 48.5054 116.827 47.7857C116.177 47.0607 115.852 45.9946 115.852 44.5873C115.852 43.1853 116.177 42.1245 116.827 41.4048C117.483 40.6799 118.357 40.3174 119.45 40.3174C120.543 40.3174 121.414 40.6799 122.065 41.4048C122.715 42.1245 123.04 43.1853 123.04 44.5873C123.04 45.9946 122.715 47.0607 122.065 47.7857C121.414 48.5054 120.543 48.8652 119.45 48.8652ZM119.45 47.8977C120.047 47.8977 120.503 47.7351 120.817 47.4099C121.137 47.0847 121.356 46.6689 121.473 46.1625C121.595 45.6508 121.657 45.1257 121.657 44.5873C121.657 44.0489 121.595 43.5265 121.473 43.0201C121.356 42.5136 121.137 42.0978 120.817 41.7727C120.503 41.4422 120.047 41.2769 119.45 41.2769C118.858 41.2769 118.402 41.4422 118.082 41.7727C117.763 42.0978 117.541 42.5136 117.419 43.0201C117.302 43.5265 117.243 44.0489 117.243 44.5873C117.243 45.1257 117.302 45.6508 117.419 46.1625C117.541 46.6689 117.763 47.0847 118.082 47.4099C118.402 47.7351 118.858 47.8977 119.45 47.8977Z" fill="#444343"/>
<path d="M110.739 48.8652C109.646 48.8652 108.772 48.5054 108.116 47.7857C107.466 47.0607 107.141 45.9946 107.141 44.5873C107.141 43.1853 107.466 42.1245 108.116 41.4048C108.772 40.6799 109.646 40.3174 110.739 40.3174C111.832 40.3174 112.703 40.6799 113.354 41.4048C114.004 42.1245 114.329 43.1853 114.329 44.5873C114.329 45.9946 114.004 47.0607 113.354 47.7857C112.703 48.5054 111.832 48.8652 110.739 48.8652ZM110.739 47.8977C111.336 47.8977 111.792 47.7351 112.106 47.4099C112.426 47.0847 112.645 46.6689 112.762 46.1625C112.884 45.6508 112.946 45.1257 112.946 44.5873C112.946 44.0489 112.884 43.5265 112.762 43.0201C112.645 42.5136 112.426 42.0978 112.106 41.7727C111.792 41.4422 111.336 41.2769 110.739 41.2769C110.147 41.2769 109.691 41.4422 109.372 41.7727C109.052 42.0978 108.83 42.5136 108.708 43.0201C108.591 43.5265 108.532 44.0489 108.532 44.5873C108.532 45.1257 108.591 45.6508 108.708 46.1625C108.83 46.6689 109.052 47.0847 109.372 47.4099C109.691 47.7351 110.147 47.8977 110.739 47.8977Z" fill="#444343"/>
<path d="M101.901 48.6731L98.8867 40.4932H100.254L102.557 46.97L104.892 40.4932H106.203L103.077 48.6731H101.901Z" fill="#444343"/>
<path d="M87.3477 48.6733V40.4933H88.707V41.7327C88.9842 41.2689 89.3493 40.9171 89.8025 40.6772C90.2556 40.4373 90.7993 40.3174 91.4336 40.3174C92.0733 40.3174 92.5798 40.4293 92.9529 40.6532C93.3314 40.8771 93.6112 41.1703 93.7925 41.5328C93.9791 41.8953 94.099 42.2897 94.1523 42.7162C94.2056 43.1427 94.2323 43.5611 94.2323 43.9716V48.6733H92.8729V43.8596C92.8729 43.0334 92.7583 42.3964 92.5291 41.9486C92.2999 41.5008 91.8548 41.2769 91.1938 41.2769C90.7407 41.2769 90.3568 41.3622 90.0423 41.5328C89.7332 41.698 89.4826 41.9273 89.2907 42.2204C89.0988 42.5083 88.9575 42.8388 88.8669 43.212C88.7763 43.5851 88.723 43.9796 88.707 44.3954V48.6733H87.3477Z" fill="#444343"/>
<path d="M82.5288 48.8652C81.6813 48.8652 80.9883 48.6679 80.4499 48.2735C79.9168 47.879 79.5223 47.3566 79.2664 46.7062C79.0159 46.0559 78.8906 45.3469 78.8906 44.5793C78.8906 43.7264 79.0292 42.9801 79.3064 42.3404C79.5836 41.7007 79.9888 41.2049 80.5218 40.8531C81.0549 40.496 81.6999 40.3174 82.4569 40.3174C83.2192 40.3174 83.8402 40.488 84.32 40.8291C84.8051 41.165 85.1622 41.6234 85.3914 42.2045C85.626 42.7802 85.7433 43.4332 85.7433 44.1635C85.7433 44.1848 85.7406 44.2381 85.7353 44.3234C85.7353 44.4034 85.7326 44.4887 85.7273 44.5793C85.7273 44.6646 85.7246 44.7312 85.7193 44.7792H80.25C80.2553 45.3229 80.3326 45.832 80.4818 46.3064C80.6364 46.7755 80.879 47.1567 81.2095 47.4499C81.54 47.7431 81.9718 47.8897 82.5048 47.8897C83.0592 47.8897 83.5044 47.7457 83.8402 47.4579C84.176 47.1647 84.4132 46.8102 84.5518 46.3944L85.5673 46.6263C85.4447 47.1007 85.2315 47.5059 84.9277 47.8417C84.6291 48.1722 84.272 48.4254 83.8562 48.6013C83.4404 48.7719 82.9979 48.8599 82.5288 48.8652ZM80.25 43.8836H84.4719C84.4666 43.0627 84.3066 42.4257 83.9921 41.9726C83.6829 41.5141 83.1632 41.2849 82.4329 41.2849C82.0651 41.2849 81.7479 41.3595 81.4814 41.5088C81.2148 41.6581 80.9936 41.858 80.8177 42.1085C80.6471 42.359 80.5138 42.6389 80.4179 42.9481C80.3273 43.2519 80.2713 43.5638 80.25 43.8836Z" fill="#444343"/>
<path d="M64.7344 48.6733V40.4933H66.0937V41.7487C66.3709 41.2849 66.7334 40.9304 67.1812 40.6852C67.6343 40.44 68.1807 40.3174 68.8204 40.3174C69.3588 40.3174 69.8012 40.3973 70.1477 40.5573C70.4942 40.7119 70.7687 40.9251 70.9713 41.197C71.1739 41.4635 71.3231 41.762 71.4191 42.0925C71.6803 41.5115 72.0534 41.0717 72.5385 40.7732C73.0236 40.4693 73.626 40.3174 74.3457 40.3174C74.9907 40.3174 75.4998 40.4293 75.8729 40.6532C76.2514 40.8718 76.5312 41.1623 76.7125 41.5248C76.8991 41.8873 77.019 42.2844 77.0723 42.7162C77.1256 43.1427 77.1523 43.5611 77.1523 43.9716V48.6733H75.7929V43.8516C75.7929 43.3026 75.7423 42.8388 75.641 42.4603C75.5451 42.0765 75.3745 41.7833 75.1293 41.5808C74.8894 41.3782 74.5482 41.2769 74.1058 41.2769C73.4608 41.2769 72.957 41.4368 72.5945 41.7567C72.232 42.0712 71.9788 42.4896 71.8349 43.0121C71.691 43.5291 71.619 44.0969 71.619 44.7152V48.6733H70.2597V43.8516C70.2597 43.3026 70.2117 42.8388 70.1157 42.4603C70.0198 42.0765 69.8492 41.7833 69.604 41.5808C69.3588 41.3782 69.0149 41.2769 68.5725 41.2769C67.9541 41.2769 67.4664 41.4288 67.1092 41.7327C66.7521 42.0312 66.4962 42.4283 66.3416 42.9241C66.187 43.4199 66.1044 43.9609 66.0937 44.5473V48.6733H64.7344Z" fill="#444343"/>
<path d="M58.8683 48.8732C58.4205 48.8732 58.0127 48.7985 57.6449 48.6493C57.2771 48.5 56.9839 48.2735 56.7653 47.9696C56.5468 47.6604 56.4375 47.2686 56.4375 46.7942C56.4375 46.2825 56.5308 45.8693 56.7174 45.5548C56.9093 45.235 57.1838 44.9844 57.541 44.8032C57.9034 44.6166 58.3379 44.47 58.8443 44.3634C59.3507 44.2568 59.9185 44.1555 60.5475 44.0595L61.451 43.9236V43.5158C61.451 42.9508 61.4031 42.5083 61.3071 42.1885C61.2165 41.8633 61.0486 41.6314 60.8034 41.4928C60.5635 41.3542 60.2143 41.2849 59.7559 41.2849C59.2548 41.2849 58.799 41.3569 58.3885 41.5008C57.9834 41.6447 57.5916 41.8553 57.2131 42.1325C57.2131 42.1325 57.1838 42.0925 57.1252 42.0125C57.0719 41.9273 57.0106 41.8313 56.9413 41.7247C56.872 41.6181 56.808 41.5248 56.7493 41.4448C56.696 41.3649 56.6694 41.3249 56.6694 41.3249C57.1118 40.9944 57.5783 40.7438 58.0687 40.5733C58.5645 40.4027 59.1482 40.3174 59.8198 40.3174C60.79 40.3174 61.531 40.5573 62.0427 41.037C62.5545 41.5115 62.8104 42.2551 62.8104 43.2679V48.6733H61.6429L61.523 47.6498C61.2351 48.0496 60.8673 48.3534 60.4195 48.5613C59.9718 48.7692 59.4547 48.8732 58.8683 48.8732ZM59.0842 47.9137C59.5693 47.9137 60.0037 47.8124 60.3876 47.6098C60.7767 47.4072 61.1312 47.114 61.451 46.7302V44.7872L60.4115 44.9631C59.6706 45.0857 59.1029 45.2136 58.7084 45.3469C58.3192 45.4802 58.0527 45.6481 57.9088 45.8507C57.7702 46.0532 57.7009 46.3198 57.7009 46.6503C57.7009 47.0767 57.8048 47.3939 58.0127 47.6018C58.2206 47.8097 58.5778 47.9137 59.0842 47.9137Z" fill="#444343"/>
<path d="M50.8624 48.873C50.3347 48.873 49.8203 48.8144 49.3192 48.6971C48.8235 48.5798 48.365 48.3959 47.9439 48.1454C47.5281 47.8895 47.1763 47.5617 46.8884 47.1619C46.6059 46.7567 46.4113 46.2663 46.3047 45.6906L47.4881 45.1788C47.664 45.7759 47.9012 46.2636 48.1998 46.6421C48.5036 47.0206 48.8848 47.2978 49.3432 47.4737C49.8016 47.6496 50.3534 47.7376 50.9984 47.7376C51.4941 47.7376 51.9499 47.6683 52.3657 47.5297C52.7868 47.3858 53.1227 47.1565 53.3732 46.842C53.6291 46.5275 53.757 46.1064 53.757 45.5786C53.757 45.0669 53.6504 44.6671 53.4372 44.3792C53.2293 44.086 52.8855 43.8355 52.4057 43.6276C51.9313 43.4197 51.2862 43.1878 50.4706 42.9319C49.799 42.7134 49.1913 42.4842 48.6475 42.2443C48.1091 42.0044 47.6827 41.6872 47.3682 41.2927C47.0537 40.8983 46.8964 40.3599 46.8964 39.6775C46.8964 39.0165 47.0723 38.4701 47.4241 38.0383C47.776 37.6066 48.2504 37.284 48.8474 37.0708C49.4498 36.8576 50.1295 36.751 50.8864 36.751C51.5208 36.751 52.0805 36.8176 52.5656 36.9509C53.0507 37.0841 53.4852 37.2974 53.869 37.5906C54.2528 37.8838 54.6046 38.2729 54.9245 38.758L53.9249 39.5176C53.5998 38.9526 53.1946 38.5368 52.7095 38.2702C52.2298 38.0037 51.6834 37.8704 51.0703 37.8704C50.5426 37.8704 50.0762 37.9291 49.671 38.0463C49.2659 38.1636 48.9461 38.3475 48.7115 38.5981C48.4823 38.8486 48.3677 39.1738 48.3677 39.5736C48.3677 39.9574 48.4476 40.2666 48.6076 40.5011C48.7728 40.7357 49.0047 40.9303 49.3032 41.0848C49.6017 41.2394 49.9536 41.378 50.3587 41.5006C50.7638 41.6232 51.2089 41.7645 51.694 41.9244C52.4457 42.1696 53.0827 42.4362 53.6051 42.724C54.1328 43.0066 54.5326 43.3691 54.8045 43.8115C55.0817 44.2486 55.2203 44.8217 55.2203 45.5307C55.2203 46.2503 55.0444 46.858 54.6926 47.3538C54.3461 47.8495 53.8476 48.228 53.1973 48.4892C52.547 48.7451 51.7687 48.873 50.8624 48.873Z" fill="#444343"/>
<path d="M25.6882 4.17094L25.3191 3.88212L23.8918 2.99486L22.4333 2.27932L20.9437 1.73551L19.4202 1.36603L18.3023 1.20471L17.1662 1.13706L16.0145 1.15787L14.8472 1.26715L14.0075 1.40506L13.1834 1.5976L11.5039 2.14922L9.7751 2.92981L8.00466 3.93937L7.32612 4.40252L6.65019 4.94633L5.97945 5.5708L5.30871 6.27332L4.25841 7.55869L3.36409 8.8961L2.62836 10.2855L2.05121 11.7322L1.77304 12.6455L1.55726 13.5796L1.39867 14.5345L1.29988 15.5103L1.26088 16.5042L1.28168 17.519L1.35967 18.5546L1.50006 19.611L1.67944 20.5451L1.92122 21.4532L2.21759 22.3326L2.57636 23.1835L3.12231 24.2373L3.76705 25.2468L4.51058 26.2121L5.35031 27.1306L5.48289 27.2217L5.63888 27.2529H6.99335L7.19094 27.1697L7.27413 26.9719V16.1322L7.35212 16.0567H10.2431L10.3782 16.0021L10.4328 15.8694V10.923L10.4354 10.8944L10.5004 10.8216L10.5966 10.8294L15.9781 13.9361L16.0119 13.9491L16.1289 13.9257L16.1835 13.8164V11.5007L16.2433 11.2795L16.4071 11.1156L22.9351 7.34273L22.9767 7.32712L23.1223 7.35574L23.1873 7.49104V15.8876L23.2367 16.0047L23.3536 16.0541H26.2758L26.4032 16.1061L26.4552 16.2336V27.1202L26.4994 27.2295L26.6085 27.2763H29.5463L29.5801 27.2815L29.6503 27.3518L29.6347 27.4481L29.0731 28.148L28.3166 28.9494L26.2888 30.9581L25.5426 31.7439L24.9291 32.4907L24.4091 33.24L23.9724 34.0232L23.533 35.0614L23.2029 36.2037L23.1223 36.3338L22.9767 36.3832H22.1733L22.0382 36.326L21.9836 36.1907V17.2718L21.9134 17.2016H20.3509L20.2989 17.2536V36.1881L20.2443 36.3234L20.1117 36.378H19.3266L19.2382 36.3572L19.1498 36.2817L19.1186 36.1698V16.2206L19.1654 16.1061L19.2824 16.0593H21.8146L21.9368 16.0125L21.9914 15.8928V15.8824V9.57261L21.9394 9.46853L21.8276 9.44772L21.7964 9.46073L17.6498 11.8545L17.46 12.0445L17.3898 12.3047V36.1256L17.317 36.3051L17.1376 36.378H16.4799L16.2823 36.2947L16.2017 36.097V15.7288L16.1445 15.5207L15.9911 15.3672L11.7067 12.8901L11.6365 12.8849L11.5897 12.9369L11.5871 12.9578V15.924L11.6209 16.0073L11.7067 16.0437H14.2259L14.3507 16.0827L14.4391 16.257V36.1464L14.3663 36.3182L14.1947 36.391H13.3914L13.2406 36.3286L13.1782 36.1776V17.4227L13.1132 17.2692L12.9572 17.2042H11.8133H11.8055L11.6703 17.264L11.6157 17.4019V36.1776L11.5585 36.3182L11.4155 36.378H10.5862L10.451 36.3312L10.3756 36.2089L10.0169 34.9417L9.52292 33.7995L8.96657 32.8758L8.26983 31.9755L7.39892 31.044L6.13023 29.8393L6.06784 29.6623L6.18223 29.5114L6.26282 29.4958H7.19094L7.5679 29.5661L7.89287 29.7716L8.54281 30.4117L9.16155 31.096L9.7413 31.8272L10.2898 32.6L10.3496 32.6312L10.4068 32.5947L10.4146 32.5635V17.2614L10.3574 17.2042H8.57921L8.51941 17.264V28.2521L8.44662 28.4264L8.27244 28.4993H5.13193L4.79396 28.4264L4.51318 28.2235L3.89704 27.5001L3.11971 26.4697L2.41258 25.3847L1.77564 24.2399L1.20889 23.0404L0.65254 21.5208L0.259976 19.8972L0.0441964 18.2397L0 16.512L0.132588 14.7661L0.43936 13.0436L0.915116 11.3445L1.55466 9.71311L1.95502 8.88829L2.39958 8.0921L3.16651 6.92642L4.03743 5.82319L5.01494 4.7798L6.09384 3.80146L7.41452 2.80751L8.42062 2.18044L9.46053 1.63403L10.5524 1.15787L11.6755 0.762374L12.8324 0.447537L14.0101 0.213361L15.1982 0.065049L16.3993 0L17.6108 0.0156121L18.8223 0.117088L20.0259 0.299226L21.2218 0.564626L22.4021 0.913288L23.5616 1.34261L24.6717 1.83959L25.7558 2.41722L26.8295 3.17179L28.1788 4.35828L29.4631 5.68788L30.5706 7.08774L31.4961 8.56045L32.2448 10.1008L32.77 11.5059L33.1729 12.9187L33.4563 14.342L33.6201 15.7731L33.6617 16.7384L33.6487 17.7089L33.5811 18.6821L33.4589 19.6604L33.3159 20.3395L33.0481 21.271L32.5412 22.8426L32.2656 23.4983L31.8939 24.2347L30.8591 25.9389L30.5836 26.1887L30.2248 26.2798H29.4033L29.3409 26.2694L29.2031 26.1367L29.2265 25.9467L29.7205 25.2676L30.1416 24.6874L30.4172 24.2321L30.9527 23.1678L31.3141 22.3482L31.5923 21.5676L31.7951 20.7949L31.8887 20.3005L31.9744 19.7775L32.2396 17.9353L32.2786 16.7514L32.1824 14.9691L32.0082 13.538L31.6417 12.0679L31.0957 10.6316L30.3678 9.19793L29.4709 7.81889L28.4414 6.54133L27.3001 5.38866L26.0626 4.3791L25.8208 4.26461L25.6882 4.17094ZM23.2107 32.6286L23.2237 32.6442L23.286 32.665L23.338 32.626L23.793 31.8792L24.4169 31.0908L25.2255 30.2374L26.4526 29.0691L26.7957 28.7465L26.8425 28.6033L26.7489 28.4837L26.6865 28.4706H25.4282L25.2437 28.3952L25.1657 28.2104V17.4253L25.1007 17.2666L24.9447 17.2016H23.4238L23.2756 17.2614L23.2133 17.4097L23.1639 32.5323L23.1717 32.5609L23.2107 32.6286Z" fill="#B5905C"/>
<path d="M23.0396 37.3008H10.6192C10.5318 37.3008 10.4609 37.3832 10.4609 37.485V38.4813C10.4609 38.583 10.5318 38.6654 10.6192 38.6654H23.0396C23.1269 38.6654 23.1978 38.583 23.1978 38.4813V37.485C23.1978 37.3832 23.1269 37.3008 23.0396 37.3008Z" fill="#B6803F"/>
<path d="M23.0213 39.5752H10.6374C10.5399 39.5752 10.4609 39.6671 10.4609 39.7805V40.7346C10.4609 40.8479 10.5399 40.9399 10.6374 40.9399H23.0213C23.1188 40.9399 23.1978 40.8479 23.1978 40.7346V39.7805C23.1978 39.6671 23.1188 39.5752 23.0213 39.5752Z" fill="#B6803F"/>
<path d="M23.0364 41.8699L23.1509 41.9156L23.1978 42.0272V42.4153L23.1665 43.0291L23.0728 43.6379L22.9218 44.234L22.7135 44.8148L22.4453 45.3703L22.1277 45.8954L21.7554 46.39L21.3388 46.8441L20.878 47.2575L20.3807 47.6228L19.8469 47.9373L19.2872 48.2011L18.7014 48.4066L18.0999 48.5537L17.4881 48.645L16.8684 48.6729H16.7695L16.1498 48.6425L15.5354 48.5512L14.9339 48.399L14.3507 48.191L13.791 47.9272L13.2598 47.6101L12.7625 47.2423L12.3043 46.8289L11.8877 46.3723L11.5206 45.8776L11.203 45.35L10.9374 44.7945L10.7291 44.2137L10.5807 43.6176L10.4896 43.0088L10.4609 42.395V42.0069L10.5078 41.8953L10.6224 41.8496L23.0364 41.8699ZM16.8189 47.501L17.0194 47.4985L17.9802 47.3311L18.8446 47.0546L19.6126 46.6741L20.2844 46.1896L20.8493 45.6088L21.3206 44.9264L21.7007 44.1401L21.9871 43.2549L21.9923 43.2346L21.9481 43.1027L21.8179 43.0469L16.8216 43.0646L11.8252 43.0418L11.6924 43.0976L11.6508 43.2295L11.6534 43.2498L11.9398 44.1376L12.3173 44.9214L12.7886 45.6062L13.3535 46.1846L14.0253 46.6716L14.7933 47.0546L15.6577 47.3286L16.6185 47.4985L16.8189 47.501Z" fill="#B6803F"/>
</svg>
